<svg xmlns="http://www.w3.org/2000/svg" width="79" height="79" viewBox="0 0 79 79">
  <g id="Group_30" data-name="Group 30" transform="translate(-443 -1138)">
    <g id="Group_22" data-name="Group 22" transform="translate(443 1138)">
      <g id="Ellipse_18" data-name="Ellipse 18" fill="none" stroke="#036" stroke-width="2">
        <circle cx="39.5" cy="39.5" r="39.5" stroke="none"/>
        <circle cx="39.5" cy="39.5" r="38.5" fill="none"/>
      </g>
    </g>
    <g id="perm_phone_msg_black_24dp" transform="translate(451.973 1151.457)">
      <path id="Path_34" data-name="Path 34" d="M0,0H56.819V56.819H0Z" transform="translate(0)" fill="none"/>
      <path id="Path_35" data-name="Path 35" d="M43.247,32.593A26.9,26.9,0,0,1,34.8,31.244a2.416,2.416,0,0,0-2.415.568L27.172,37.02a35.688,35.688,0,0,1-15.6-15.578l5.208-5.232a2.324,2.324,0,0,0,.592-2.391,26.9,26.9,0,0,1-1.349-8.452A2.374,2.374,0,0,0,13.654,3H5.367A2.374,2.374,0,0,0,3,5.367,40.243,40.243,0,0,0,43.247,45.614a2.374,2.374,0,0,0,2.367-2.367V34.961A2.374,2.374,0,0,0,43.247,32.593ZM24.307,3V26.675l7.1-7.1h14.2V3Z" transform="translate(4.102 4.102)" fill="#036"/>
    </g>
  </g>
</svg>
